<svg xmlns="http://www.w3.org/2000/svg" version="1.1" xmlns:xlink="http://www.w3.org/1999/xlink" width="1000" height="1000"><g clip-path="url(#SvgjsClipPath1108)"><rect width="1000" height="1000" fill="#ffffff"></rect><g transform="matrix(3.858237336713884,0,0,3.858237336713884,150,169.44551617703803)"><svg xmlns="http://www.w3.org/2000/svg" id="Layer_2" data-name="Layer 2" viewBox="0 0 181.43 171.35" width="181.43" height="171.35"><defs>
    <style>
      .cls-1 {
        opacity: .9;
      }

      .cls-2 {
        opacity: .8;
      }

      .cls-3 {
        opacity: .5;
      }
    </style>
  <clipPath id="SvgjsClipPath1108"><rect width="1000" height="1000" x="0" y="0" rx="500" ry="500"></rect></clipPath></defs><g id="Layer_1-2" data-name="Layer 1">
    <polygon class="cls-1" points="78.91 0 76.32 21.45 54.02 21.45 56.62 0 78.91 0"></polygon>
    <polygon class="cls-2" points="49.66 23.25 47.29 42.9 26.86 42.9 29.24 23.25 49.66 23.25"></polygon>
    <polygon class="cls-1" points="73.68 42.9 71.08 64.35 48.79 64.35 51.39 42.9 73.68 42.9"></polygon>
    <polygon class="cls-2" points="45.55 65.83 43.31 84.33 24.08 84.33 26.32 65.83 45.55 65.83"></polygon>
    <polygon class="cls-1" points="68.55 85.8 65.96 107.25 43.66 107.25 46.26 85.8 68.55 85.8"></polygon>
    <polygon class="cls-2" points="41.13 108 38.7 128.09 17.83 128.09 20.26 108 41.13 108"></polygon>
    <polygon class="cls-1" points="63.49 128.7 60.9 150.15 38.6 150.15 41.2 128.7 63.49 128.7"></polygon>
    <polygon class="cls-3" points="14.49 134.9 12.98 148.3 0 148.3 1.51 134.9 14.49 134.9"></polygon>
    <polygon class="cls-2" points="34.82 151.76 32.82 169.5 15.63 169.5 17.64 151.76 34.82 151.76"></polygon>
    <polygon class="cls-3" points="19.62 87.5 17.69 105.55 1.15 105.55 3.08 87.5 19.62 87.5"></polygon>
    <polygon class="cls-3" points="27.32 4.29 25.87 17.17 13.39 17.17 14.85 4.29 27.32 4.29"></polygon>
    <path d="M167.79,12.75C158.7,4.25,144.25,0,124.46,0h-45.58l-20.73,171.35h34.46l8.19-72.51h21.13c11.19,0,20.6-1.38,28.22-4.14,7.62-2.76,13.73-6.52,18.31-11.28,4.58-4.76,7.89-10.19,9.92-16.32,2.03-6.12,3.04-12.54,3.04-19.25,0-14.9-4.55-26.6-13.64-35.1ZM85.73,148.3h-17.18l2-17.74h17.18l-2,17.74ZM90.13,103.77h-15.53l1.81-16.03h15.53l-1.81,16.03ZM94,60.94h-14.17l1.65-14.63h14.17l-1.65,14.63ZM100.45,21.45h-17.18l2-17.74h17.18l-2,17.74ZM144.92,62.22c-2.45,3.43-5.91,5.95-10.39,7.55-4.48,1.61-9.76,2.41-15.84,2.41h-15.83l5.13-45.54h14.79c8.81,0,15.32,1.84,19.52,5.51s6.3,9.29,6.3,16.84c0,5.39-1.22,9.79-3.67,13.22Z"></path>
    <polygon class="cls-3" points="20.36 48.48 18.99 61.3 7.24 61.3 8.61 48.48 20.36 48.48"></polygon>
  </g></svg></g></g></svg>