<svg width="290" height="290" viewBox="0 0 290 290" fill="none" xmlns="http://www.w3.org/2000/svg">
<path d="M223.906 105.083H223.667C218.392 107.721 212.633 107.482 206.875 107.482C194.158 107.244 181.441 107.005 168.728 106.766C167.29 106.766 166.564 107.005 166.803 108.683C167.047 110.124 166.325 110.605 165.13 110.843C163.93 111.082 162.965 111.562 161.771 111.801C160.088 112.521 158.889 113.718 158.889 115.639C158.889 117.081 158.172 117.559 156.728 117.799C155.534 118.042 154.573 118.281 153.374 119.238C156.228 119.53 159.06 119.6 161.877 119.63C161.415 119.458 161.278 119.058 161.278 118.524C161.278 114.448 161.278 114.209 165.364 113.243C167.524 112.765 169.684 112.526 171.601 112.285C172.083 112.285 172.801 112.285 173.043 111.568C173.282 110.609 174.238 110.609 174.96 110.609C179.519 110.609 183.839 110.849 188.399 110.849C196.561 111.088 204.714 111.088 212.873 111.327C213.833 111.327 214.794 111.807 215.038 110.129C215.277 109.405 216.471 109.405 217.199 109.405C218.154 109.405 217.676 110.364 217.676 110.849V113.01C217.915 115.168 216.721 116.13 214.799 116.607C212.157 117.089 209.763 117.566 207.12 117.566C203.522 117.328 199.922 118.047 196.324 119.482C198.48 119.721 200.156 119.963 202.317 120.202C200.634 121.884 199.435 123.321 198.23 124.764C197.752 125.484 197.274 125.241 196.797 124.764C195.358 123.806 193.92 122.848 192.232 122.124C184.313 117.09 175.439 114.688 166.081 115.407C164.4 115.646 163.438 116.126 164.161 117.806C164.687 119.032 164.319 119.488 163.525 119.645C169.38 119.691 175.173 119.722 180.964 121.399C177.848 122.357 174.727 123.081 171.851 124.52C173.052 125.717 174.729 124.759 176.167 125.717C173.055 126.194 170.896 127.634 168.731 130.273C169.214 128.591 169.457 127.395 169.692 126.197C169.926 124.998 169.692 124.279 168.249 123.796C163.456 122.114 158.414 121.879 153.377 121.636C150.734 121.394 148.096 121.636 145.459 121.874C142.815 122.113 140.894 123.31 139.461 125.232C138.017 127.39 136.578 129.312 134.896 131.71C139.211 130.993 143.058 130.751 147.129 131.232C144.969 131.951 142.565 132.429 140.41 132.914C130.574 135.313 121.939 139.631 114.26 146.108C108.739 150.668 103.464 155.466 97.9446 160.025C99.2258 160.662 100.346 160.582 101.304 159.786C107.541 154.988 113.777 149.945 120.258 145.63C131.297 138.192 143.771 134.349 156.97 132.675C159.613 132.433 162.006 131.951 164.888 130.993C163.933 132.675 162.728 133.148 161.533 133.393C154.814 135.551 147.851 137.472 141.375 140.351C141.136 140.59 140.654 140.59 140.415 141.074C142.335 140.59 144.257 140.351 146.895 139.871C144.73 142.033 143.536 144.189 142.098 146.349C141.62 147.066 140.416 146.588 139.459 146.827H136.81C138.011 148.749 140.893 149.709 140.654 152.591C137.776 150.909 135.855 148.747 133.7 146.827C132.739 145.871 132.018 145.871 130.579 146.588C121.699 151.387 113.542 157.145 105.145 162.664C104.19 163.381 103.946 163.858 103.946 165.064C104.19 166.264 103.946 167.702 103.946 168.907C103.946 170.34 103.224 171.306 102.025 172.023C101.547 170.107 101.786 168.186 101.786 166.264C101.786 165.064 101.308 164.347 100.109 163.86C97.9482 163.382 96.0277 162.904 93.8671 162.426C92.4291 162.188 91.9514 162.665 92.1903 164.108C92.1903 165.791 92.1903 167.702 91.9514 169.385C91.2288 166.985 91.4677 164.347 91.4677 161.949C91.4677 160.993 92.1903 160.515 92.662 159.789C98.9085 153.791 105.618 148.272 112.338 142.514C113.538 141.553 113.299 141.075 112.577 140.112C111.139 137.956 109.222 136.755 106.824 136.275C102.742 135.317 98.66 135.078 94.5837 135.317C91.7065 135.556 89.5519 136.76 88.1079 138.916C84.7482 143.236 83.5443 148.272 84.0316 153.554C84.0316 154.993 83.5479 155.709 82.3487 156.426C78.5113 158.108 74.6738 160.029 70.8364 161.711C69.6372 162.189 69.1547 162.905 69.3936 164.349C69.6384 165.066 69.3936 165.544 69.3936 166.266C69.6384 167.467 69.1547 168.188 67.9544 168.427C66.7552 168.666 65.7938 169.388 64.8347 170.11C66.7564 172.269 69.3996 173.468 71.793 174.673C80.4342 178.745 89.792 180.667 98.9097 182.348C114.737 185.225 130.58 185.464 146.413 184.509H147.134C154.093 185.225 160.573 183.065 167.054 180.189C174.49 176.823 181.926 173.708 189.128 170.11C189.606 169.87 190.322 169.631 191.044 169.148C189.844 169.148 189.128 169.631 188.166 169.874C177.848 173.473 167.293 177.072 156.973 180.427C153.136 181.626 149.055 180.909 145.217 181.148C168.253 174.19 190.8 166.51 212.874 156.436C198.962 160.517 184.802 164.593 170.651 169.147C171.845 166.509 172.324 166.031 174.727 165.314C185.284 161.472 195.364 156.674 205.682 151.877C205.682 151.717 205.6 151.558 205.437 151.399C196.324 154.515 186.961 157.641 177.848 160.517C184.563 154.275 192.238 150.203 200.884 147.323C193.443 148.999 186.007 149.722 178.809 151.16C193.203 144.679 208.08 139.884 222.474 133.886C218.393 134.125 214.312 133.647 210.474 133.406C209.28 133.406 208.314 134.364 207.354 134.844C206.637 135.083 205.92 135.803 204.954 135.803C207.115 133.162 209.28 131.007 212.151 129.564C215.033 128.128 217.672 126.684 220.315 125.249C214.073 126.204 207.837 127.403 201.596 127.881C203.277 126.923 204.955 125.965 206.877 125.001C208.799 124.043 210.953 123.084 212.153 121.164C212.391 120.44 213.108 120.44 213.835 120.206C216.474 119.247 219.112 118.524 221.755 117.565C222.715 117.326 223.193 116.841 223.432 115.645C223.91 112.526 224.394 109.167 225.11 106.049C225.354 105.09 224.871 104.849 223.91 105.09L223.906 105.083ZM107.059 138.913C101.538 139.393 99.6179 143.717 96.9796 147.793C97.4621 140.591 102.261 136.274 107.059 138.913ZM73.9452 171.071C73.4675 170.832 72.7509 170.832 72.9898 170.11C73.2334 169.388 73.7112 169.632 74.1889 169.632C77.7875 170.105 81.1424 171.06 84.9847 171.788C81.1472 172.504 77.5438 172.027 73.9452 171.071ZM89.5495 167.468C89.3011 168.423 88.8233 169.14 87.6278 169.14C84.2633 169.149 80.9036 168.667 77.5438 167.707C80.9023 166.024 83.5467 163.863 87.1453 166.024C87.3841 166.264 87.6278 166.024 87.8667 166.264C88.3492 166.503 89.7884 166.264 89.5495 167.468ZM129.612 153.312C129.612 152.596 130.338 152.118 131.05 152.118C133.454 152.586 136.092 152.825 138.491 154.029C135.852 154.507 133.21 154.029 130.811 154.029C130.333 154.029 129.373 154.268 129.612 153.312ZM127.695 158.594C131.293 158.833 134.892 159.31 138.729 159.554C139.69 159.554 139.929 160.032 139.69 160.987C139.69 161.713 139.451 162.182 138.489 162.182C133.931 161.226 129.611 160.509 125.052 159.554C125.773 158.594 126.733 158.594 127.694 158.594H127.695ZM115.222 170.823C116.418 170.345 117.383 169.628 118.816 170.106C122.892 171.062 126.735 171.788 130.811 172.744C127.934 174.665 125.774 177.303 121.937 175.865C120.015 175.143 117.617 174.904 115.461 174.426C114.023 174.187 112.819 173.705 111.38 172.744C112.819 172.023 114.023 171.545 115.222 170.823ZM126.978 180.19C126.739 180.912 126.252 180.668 125.779 180.668C121.697 180.19 117.861 179.468 114.023 178.025C111.858 177.063 109.697 176.104 107.777 174.665C113.784 176.347 120.015 178.03 126.252 179.23C126.739 179.23 127.214 179.469 126.978 180.191V180.19ZM129.854 180.658C129.377 180.18 129.615 176.348 130.103 176.098C134.891 172.982 139.45 169.628 144.726 166.746V171.55C144.726 172.267 144.487 172.744 143.771 173.222C139.456 175.626 135.136 178.268 130.816 180.658C130.577 180.902 130.099 181.141 129.854 180.658ZM142.089 178.507C143.528 177.547 145.21 176.347 147.127 176.104C145.449 177.303 143.767 178.03 142.089 178.507ZM156.006 155.706C156.006 151.391 156.484 147.309 159.6 143.95C161.525 142.033 163.924 141.545 165.841 142.507C158.644 145.149 157.928 151.869 156.245 158.588C156.006 157.389 156.006 156.427 156.006 155.706ZM168.479 165.546C166.797 168.428 163.92 168.189 162.237 165.307C161.042 163.147 160.804 160.987 160.804 158.588C160.804 155.949 161.042 153.306 162.485 151.152C163.202 149.951 164.162 148.752 165.84 148.752C167.518 148.752 168.717 149.708 169.2 151.152C171.361 156.188 171.12 160.986 168.477 165.545L168.479 165.546ZM203.757 131.243C195.594 135.556 186.715 138.435 177.84 141.795C179.518 142.273 180.717 142.273 182.166 143.238C171.604 142.276 162.009 138.912 151.689 139.637C155.288 138.194 158.887 137.236 162.49 136.277C163.452 136.038 164.651 136.038 165.606 135.08C166.806 133.639 168.483 133.399 170.399 133.159C181.438 132.2 192.722 132.681 203.757 131.242V131.243Z" fill="white"/>
<path d="M162.48 119.717C162.871 119.717 163.226 119.701 163.521 119.641C162.974 119.636 162.424 119.632 161.875 119.626C162.036 119.685 162.234 119.717 162.48 119.717Z" fill="white"/>
<path d="M211.677 114.44C203.514 113.721 195.356 113.482 186.96 113.721C195.123 116.839 203.514 115.402 211.677 114.44Z" fill="white"/>
<path d="M168.479 136.757C169.679 137.716 170.639 139.157 172.561 137.716C173.516 136.997 174.721 136.997 175.677 136.518C176.155 136.277 176.637 136.038 176.403 135.319C176.155 134.842 175.677 134.842 175.203 134.842C174.481 134.837 173.76 134.837 173.042 134.837C171.599 134.837 170.394 134.837 168.961 135.076C167.761 135.315 167.761 136.035 168.477 136.757H168.479Z" fill="white"/>
<path d="M164.641 154.508C163.203 154.269 162.964 155.707 162.725 156.911C162.486 158.35 162.486 159.793 163.924 160.271C165.125 160.748 166.085 159.067 166.085 156.911C166.085 155.951 165.84 154.756 164.641 154.508Z" fill="white"/>
<path d="M127.208 129.795C126.735 129.795 126.496 130.037 126.496 130.276C126.496 130.753 126.973 130.999 127.212 131.233C127.695 131.472 127.934 131.711 128.411 131.952C129.134 132.191 129.134 133.633 130.094 133.15C131.05 132.669 132.011 131.952 132.967 131.233C133.444 130.753 133.444 130.037 132.728 130.037C130.807 129.555 129.129 129.555 127.208 129.795Z" fill="white"/>
<path d="M107.115 119.593L104.935 117.331C104.25 118.102 103.473 119.081 102.588 120.318L104.766 122.579C105.653 121.34 106.429 120.363 107.115 119.591V119.593Z" fill="white"/>
<path d="M109.123 127.102C110.009 125.866 110.787 124.888 111.471 124.115L109.293 121.854C108.607 122.626 107.831 123.603 106.943 124.84L109.123 127.102Z" fill="white"/>
<path d="M118.415 110.923L116.236 108.661C115.429 110.046 114.737 111.101 114.135 111.904L116.313 114.165C116.915 113.363 117.607 112.309 118.415 110.923Z" fill="white"/>
<path d="M96.437 124.163C97.0792 123.099 97.6842 122.13 98.2543 121.245L96.0757 118.984C95.5044 119.867 94.8994 120.837 94.2548 121.901L94.022 122.279L96.2006 124.54L96.437 124.163Z" fill="white"/>
<path d="M98.6156 126.425L98.3804 126.802L100.559 129.063L100.794 128.686C101.438 127.623 102.041 126.654 102.613 125.768L100.433 123.507C99.8652 124.392 99.259 125.363 98.6156 126.425Z" fill="white"/>
<path d="M111.838 104.096C111.031 105.481 110.338 106.535 109.737 107.338L111.956 109.643C112.559 108.84 113.25 107.787 114.058 106.4L111.837 104.096H111.838Z" fill="white"/>
<path d="M100.537 112.766C99.8507 113.537 99.0753 114.515 98.1882 115.753L100.408 118.057C101.295 116.819 102.068 115.842 102.757 115.07L100.537 112.765V112.766Z" fill="white"/>
<path d="M102.739 131.327L104.917 133.588L105.153 133.212C105.795 132.146 106.401 131.175 106.971 130.294L104.791 128.03C104.224 128.914 103.617 129.885 102.974 130.948L102.74 131.327H102.739Z" fill="white"/>
<path d="M122.773 115.448L120.595 113.184C119.786 114.569 119.096 115.627 118.493 116.429L120.673 118.69C121.275 117.887 121.966 116.831 122.773 115.448Z" fill="white"/>
<path d="M102.611 125.768L104.79 128.03C105.574 126.811 106.29 125.757 106.945 124.842L104.766 122.58C104.112 123.495 103.395 124.55 102.613 125.768H102.611Z" fill="white"/>
<path d="M107.115 119.593L109.294 121.854C110.481 120.518 111.401 119.798 112.165 119.409L109.986 117.149C109.224 117.536 108.303 118.258 107.116 119.593H107.115Z" fill="white"/>
<path d="M112.164 119.41L114.342 121.672C115.812 120.926 116.699 121.414 117.793 121.127L115.615 118.865C114.519 119.153 113.633 118.667 112.164 119.41Z" fill="white"/>
<path d="M113.435 116.603L115.615 118.864C116.381 118.664 117.25 118.081 118.493 116.427L116.315 114.163C115.072 115.819 114.203 116.403 113.435 116.603Z" fill="white"/>
<path d="M114.135 111.903L111.956 109.642C110.714 111.297 109.843 111.878 109.078 112.08L111.256 114.341C112.022 114.138 112.891 113.557 114.135 111.902V111.903Z" fill="white"/>
<path d="M109.079 112.08L106.858 109.776C105.764 110.064 104.878 109.576 103.407 110.321L105.627 112.625C107.097 111.88 107.983 112.368 109.079 112.081V112.08Z" fill="white"/>
<path d="M113.435 116.603L111.256 114.341C110.162 114.628 109.273 114.139 107.805 114.886L109.984 117.148C111.453 116.401 112.34 116.889 113.434 116.601L113.435 116.603Z" fill="white"/>
<path d="M107.807 114.887L105.627 112.623C104.864 113.011 103.944 113.733 102.757 115.07L104.935 117.331C106.122 115.994 107.044 115.276 107.807 114.887Z" fill="white"/>
<path d="M102.587 120.318L100.409 118.057C99.7547 118.97 99.0393 120.027 98.2543 121.244L100.433 123.506C101.217 122.286 101.932 121.23 102.587 120.316V120.318Z" fill="white"/>
<path d="M144.885 115.577L144.921 115.574C145.978 115.478 147.056 115.381 148.161 115.311L149.429 114.298C150.752 113.24 151.996 112.62 153.146 112.218C153.519 111.161 154.07 110.175 154.789 109.288C155.922 107.891 157.434 106.781 159.284 105.989L159.888 105.731L160.53 105.603C160.619 105.585 160.727 105.556 160.849 105.519C161.205 104.459 161.74 103.649 162.25 103.06C164.52 100.446 167.686 100.446 168.726 100.446H168.785L188.68 100.819C178.672 92.4303 165.769 87.3793 151.688 87.3793C137.607 87.3793 124.269 92.6031 114.191 101.249L134.39 121.448C136.967 117.995 140.596 115.965 144.884 115.577H144.885Z" fill="white"/>
<path d="M192.139 175.672C192.07 175.702 191.975 175.743 191.934 175.762C186.758 178.346 181.429 180.705 176.273 182.987C174.102 183.948 171.855 184.942 169.656 185.937L169.614 185.956C164.042 188.429 157.335 190.958 149.842 190.958C148.834 190.958 147.821 190.911 146.823 190.82H146.599C140.926 191.159 135.687 191.324 130.59 191.324C125.838 191.324 121.265 191.179 116.829 190.884C126.508 198.249 138.588 202.622 151.689 202.622C175.491 202.622 195.922 188.19 204.709 167.601L194.553 174.395C193.58 175.045 192.677 175.438 192.139 175.673V175.672Z" fill="white"/>
</svg>
